<svg viewBox="0 0 109.8 32.66" xmlns="http://www.w3.org/2000/svg" id="LOGO">
  <path d="M0,30.25v-6.19c0-1.19,1.19-1.98,2.32-1.59,1.27.46,2.46.69,3.55.69,2.59,0,3.86-1.35,3.86-4.1V2.45c0-.94.76-1.71,1.7-1.71h6.49c.94,0,1.7.76,1.7,1.71l-.08,16.52c-.04,4.56-1.15,7.97-3.37,10.27-2.22,2.26-5.14,3.41-8.7,3.41-1.96,0-4.03-.26-6.18-.74-.76-.17-1.29-.87-1.29-1.66M27.52,4.19c-3.12,2.63-5.09,6.99-5.09,12.08,0,10.56,7.93,16.39,17.09,16.39s17.09-5.84,17.09-16.39c0-5.05-1.64-9.04-4.89-11.91-3.24-2.92-7.31-4.35-12.2-4.35-4.6,0-8.84,1.52-12,4.19M39.52,9.53c1.84,0,3.37.57,4.64,1.77,1.27,1.19,1.93,2.83,1.93,4.97s-.65,3.82-1.93,5.05c-1.27,1.19-2.83,1.81-4.64,1.81s-3.37-.62-4.64-1.81c-1.27-1.23-1.93-2.91-1.93-5.05s.61-3.78,1.88-4.97c1.28-1.2,2.84-1.77,4.69-1.77M82.73,2.44c0-.94-.76-1.71-1.7-1.71h-21.86c-.94,0-1.71.77-1.71,1.71v5.88c0,.94.76,1.7,1.71,1.7h4.24c.94,0,1.7.76,1.7,1.71v18.48c0,.94.76,1.71,1.7,1.71h6.49c.94,0,1.71-.77,1.71-1.71V11.73c0-.94.76-1.71,1.7-1.71h4.32c.94,0,1.7-.75,1.7-1.7V2.44M109.8,2.44c0-.94-.76-1.71-1.7-1.71h-21.86c-.94,0-1.7.77-1.7,1.71v5.88c0,.94.76,1.7,1.7,1.7h4.24c.94,0,1.7.76,1.7,1.71v18.48c0,.94.76,1.71,1.7,1.71h6.49c.94,0,1.71-.77,1.71-1.71V11.73c0-.94.75-1.71,1.7-1.71h4.32c.94,0,1.7-.75,1.7-1.7V2.44"></path>
</svg>